<svg width="42" height="42" viewBox="0 0 42 42" fill="none" xmlns="http://www.w3.org/2000/svg">
<circle cx="21" cy="21" r="21" fill="#F29D52"/>
<path d="M23.096 16.1848C21.7929 16.1848 20.5732 16.546 19.534 17.1759V11H15V29.6457H19.534V29.0089C20.5732 29.6364 21.7929 30 23.096 30C26.9079 30 30 26.9063 30 23.0924C30 19.2762 26.9102 16.1848 23.096 16.1848ZM22.4271 25.8781C20.8301 25.8781 19.534 24.5814 19.534 22.9835C19.534 21.3857 20.8301 20.089 22.4271 20.089C24.0241 20.089 25.3202 21.3857 25.3202 22.9835C25.3202 24.5837 24.0241 25.8781 22.4271 25.8781Z" fill="white"/>
</svg>
